<svg height="512" viewBox="0 0 512 512" width="512" xmlns="http://www.w3.org/2000/svg" xmlns:xlink="http://www.w3.org/1999/xlink"><linearGradient id="a" gradientUnits="userSpaceOnUse" x1="-13.253" x2="480.269" y1="485.25" y2="-8.272" data-name="New Gradient Swatch 1"><stop offset="0" stop-color="#003f8a"/><stop offset=".518" stop-color="#00d7df"/><stop offset="1" stop-color="#006df0"/></linearGradient><linearGradient id="b" x1="118.748" x2="612.271" xlink:href="#a" y1="617.252" y2="123.729"/><linearGradient id="c" x1="-153.252" x2="340.271" xlink:href="#a" y1="345.252" y2="-148.271"/><linearGradient id="d" x1="-89.252" x2="404.271" xlink:href="#a" y1="409.252" y2="-84.271"/><linearGradient id="e" x1="-25.252" x2="468.271" xlink:href="#a" y1="473.252" y2="-20.271"/><linearGradient id="f" x1="-97.252" x2="396.271" xlink:href="#a" y1="401.252" y2="-92.271"/><linearGradient id="g" x1="-63.252" x2="430.271" xlink:href="#a" y1="435.252" y2="-58.271"/><g><path d="m456 144h-80v-56a8 8 0 0 0 -8-8h-64a8 8 0 0 0 -8 8v56h-240a8 8 0 0 0 -8 8v64a8 8 0 0 0 8 8h28.69l123.31 123.31v60.69a8.006 8.006 0 0 0 5.03 7.43l80 32a8.078 8.078 0 0 0 2.97.57 8.017 8.017 0 0 0 8-8v-92.69l123.31-123.31h28.69a8 8 0 0 0 8-8v-64a8 8 0 0 0 -8-8zm-144-48h48v48h-48zm-21.66 242.34a8.008 8.008 0 0 0 -2.34 5.66v84.18l-64-25.6v-58.58a8.008 8.008 0 0 0 -2.34-5.66l-114.35-114.34h297.38zm157.66-130.34h-384v-48h384z" fill="url(#a)"/><path d="m256 456a24 24 0 1 0 24 24 24.027 24.027 0 0 0 -24-24zm0 32a8 8 0 1 1 8-8 8.009 8.009 0 0 1 -8 8z" fill="url(#b)"/><path d="m96 104h80a8 8 0 0 0 8-8v-80a8 8 0 0 0 -8-8h-80a8 8 0 0 0 -8 8v80a8 8 0 0 0 8 8zm8-80h64v64h-64z" fill="url(#c)"/><path d="m224 104h32a8 8 0 0 0 8-8v-32a8 8 0 0 0 -8-8h-32a8 8 0 0 0 -8 8v32a8 8 0 0 0 8 8zm8-32h16v16h-16z" fill="url(#d)"/><path d="m384 72h48a8 8 0 0 0 8-8v-48a8 8 0 0 0 -8-8h-48a8 8 0 0 0 -8 8v48a8 8 0 0 0 8 8zm8-48h32v32h-32z" fill="url(#e)"/><path d="m168 168h-80a8 8 0 0 0 0 16h80a8 8 0 0 0 0-16z" fill="url(#f)"/><path d="m200 168h-8a8 8 0 0 0 0 16h8a8 8 0 0 0 0-16z" fill="url(#g)"/></g></svg>